<svg width="276" height="47" viewBox="0 0 276 47" fill="none" xmlns="http://www.w3.org/2000/svg">
<path d="M50.85 36.5625V14.3865H43.11V11.3625H62.01V14.3865H54.27V36.5625H50.85ZM65.2472 36.5625V17.8425H68.4872V36.5625H65.2472ZM66.8672 14.6385C66.2432 14.6385 65.7032 14.4105 65.2472 13.9545C64.8152 13.4985 64.5992 12.9705 64.5992 12.3705C64.5992 11.6745 64.8032 11.1225 65.2112 10.7145C65.6192 10.3065 66.1712 10.1025 66.8672 10.1025C67.4912 10.1025 68.0192 10.3305 68.4512 10.7865C68.9072 11.2185 69.1352 11.7465 69.1352 12.3705C69.1352 13.0425 68.9312 13.5945 68.5232 14.0265C68.1152 14.4345 67.5632 14.6385 66.8672 14.6385ZM81.8072 36.9945C80.0312 36.9945 78.4712 36.5865 77.1272 35.7705C75.8072 34.9305 74.7872 33.7785 74.0672 32.3145C73.3472 30.8265 72.9872 29.1225 72.9872 27.2025C72.9872 25.4025 73.3472 23.7585 74.0672 22.2705C74.8112 20.7825 75.8672 19.6065 77.2352 18.7425C78.6032 17.8545 80.2112 17.4105 82.0592 17.4105C83.1152 17.4105 84.0392 17.5065 84.8312 17.6985C85.6472 17.8905 86.4272 18.1665 87.1712 18.5265L86.1992 21.2625C85.5272 20.9265 84.8792 20.6865 84.2552 20.5425C83.6552 20.3745 82.9832 20.2905 82.2392 20.2905C80.5592 20.2905 79.1432 20.9025 77.9912 22.1265C76.8632 23.3265 76.2992 24.9945 76.2992 27.1305C76.2992 28.4265 76.5392 29.6025 77.0192 30.6585C77.4992 31.7145 78.1592 32.5545 78.9992 33.1785C79.8632 33.8025 80.8712 34.1145 82.0232 34.1145C82.9352 34.1145 83.7152 34.0185 84.3632 33.8265C85.0112 33.6105 85.7072 33.3105 86.4512 32.9265L87.4592 35.6625C86.7152 36.0705 85.8752 36.3945 84.9392 36.6345C84.0272 36.8745 82.9832 36.9945 81.8072 36.9945ZM104.152 36.9225L94.4677 26.9505V36.5625H91.2277V9.9225H94.4677V25.1505L102.928 17.4825L104.8 19.5345L97.5637 25.9425L106.384 34.7625L104.152 36.9225ZM116.575 36.9945C113.887 36.9945 111.751 36.1425 110.167 34.4385C108.607 32.7105 107.827 30.2985 107.827 27.2025C107.827 25.3305 108.175 23.6625 108.871 22.1985C109.591 20.7105 110.587 19.5465 111.859 18.7065C113.131 17.8425 114.607 17.4105 116.287 17.4105C118.087 17.4105 119.575 17.8065 120.751 18.5985C121.951 19.3665 122.851 20.4105 123.451 21.7305C124.051 23.0505 124.351 24.5025 124.351 26.0865C124.351 26.9265 124.315 27.7425 124.243 28.5345H111.139C111.355 30.2865 111.967 31.6545 112.975 32.6385C113.983 33.6225 115.315 34.1145 116.971 34.1145C118.051 34.1145 119.023 34.0065 119.887 33.7905C120.751 33.5505 121.579 33.2505 122.371 32.8905L123.127 35.6625C122.263 36.0465 121.291 36.3585 120.211 36.5985C119.131 36.8625 117.919 36.9945 116.575 36.9945ZM111.103 25.9065H121.363C121.363 24.0825 120.907 22.6785 119.995 21.6945C119.083 20.7105 117.823 20.2185 116.215 20.2185C114.823 20.2185 113.671 20.7105 112.759 21.6945C111.847 22.6545 111.295 24.0585 111.103 25.9065ZM135.221 36.9945C133.421 36.9945 131.993 36.4065 130.937 35.2305C129.905 34.0305 129.389 32.3265 129.389 30.1185V21.3345H126.149V18.5265H129.461L130.145 12.6225H132.629V18.5265H137.813V21.3345H132.629V30.3705C132.629 31.7625 132.917 32.7345 133.493 33.2865C134.093 33.8385 134.801 34.1145 135.617 34.1145C136.217 34.1145 136.781 34.0185 137.309 33.8265C137.861 33.6345 138.365 33.4065 138.821 33.1425L139.721 35.7345C139.241 36.0225 138.593 36.2985 137.777 36.5625C136.961 36.8505 136.109 36.9945 135.221 36.9945ZM150.61 36.8505C149.146 36.8505 147.754 36.8145 146.434 36.7425C145.138 36.6705 144.106 36.5865 143.338 36.4905V11.4345C144.178 11.3385 145.222 11.2545 146.47 11.1825C147.718 11.1105 149.146 11.0745 150.754 11.0745C153.826 11.0745 156.19 11.6625 157.846 12.8385C159.502 13.9905 160.33 15.5625 160.33 17.5545C160.33 18.8745 159.97 20.0025 159.25 20.9385C158.554 21.8505 157.534 22.6065 156.19 23.2065C157.822 23.7825 159.058 24.5865 159.898 25.6185C160.738 26.6265 161.158 27.8745 161.158 29.3625C161.158 31.6425 160.258 33.4665 158.458 34.8345C156.658 36.1785 154.042 36.8505 150.61 36.8505ZM146.758 22.2345H150.718C152.614 22.2345 154.114 21.8385 155.218 21.0465C156.346 20.2545 156.91 19.2345 156.91 17.9865C156.91 16.6425 156.358 15.6225 155.254 14.9265C154.15 14.2065 152.638 13.8465 150.718 13.8465C149.926 13.8465 149.206 13.8705 148.558 13.9185C147.91 13.9425 147.31 13.9785 146.758 14.0265V22.2345ZM150.862 34.0065C152.998 34.0065 154.666 33.6225 155.866 32.8545C157.066 32.0865 157.666 30.9705 157.666 29.5065C157.666 28.0665 157.078 26.9385 155.902 26.1225C154.726 25.3065 153.046 24.8985 150.862 24.8985H146.758V33.7905C148.03 33.9345 149.398 34.0065 150.862 34.0065ZM173.537 36.9945C171.761 36.9945 170.165 36.5865 168.749 35.7705C167.333 34.9305 166.217 33.7785 165.401 32.3145C164.609 30.8265 164.213 29.1225 164.213 27.2025C164.213 25.1865 164.621 23.4465 165.437 21.9825C166.253 20.5185 167.369 19.3905 168.785 18.5985C170.201 17.8065 171.785 17.4105 173.537 17.4105C175.289 17.4105 176.861 17.8065 178.253 18.5985C179.669 19.3905 180.785 20.5185 181.601 21.9825C182.441 23.4225 182.861 25.1385 182.861 27.1305C182.861 29.1225 182.453 30.8625 181.637 32.3505C180.821 33.8145 179.705 34.9545 178.289 35.7705C176.897 36.5865 175.313 36.9945 173.537 36.9945ZM173.537 34.1145C175.433 34.1145 176.909 33.4785 177.965 32.2065C179.021 30.9105 179.549 29.2425 179.549 27.2025C179.549 25.9545 179.285 24.8145 178.757 23.7825C178.229 22.7265 177.509 21.8865 176.597 21.2625C175.709 20.6145 174.689 20.2905 173.537 20.2905C171.641 20.2905 170.165 20.9145 169.109 22.1625C168.053 23.4105 167.525 25.0665 167.525 27.1305C167.525 28.3785 167.789 29.5425 168.317 30.6225C168.845 31.6785 169.553 32.5305 170.441 33.1785C171.353 33.8025 172.385 34.1145 173.537 34.1145ZM195.053 36.9945C193.277 36.9945 191.681 36.5865 190.265 35.7705C188.849 34.9305 187.733 33.7785 186.917 32.3145C186.125 30.8265 185.729 29.1225 185.729 27.2025C185.729 25.1865 186.137 23.4465 186.953 21.9825C187.769 20.5185 188.885 19.3905 190.301 18.5985C191.717 17.8065 193.301 17.4105 195.053 17.4105C196.805 17.4105 198.377 17.8065 199.769 18.5985C201.185 19.3905 202.301 20.5185 203.117 21.9825C203.957 23.4225 204.377 25.1385 204.377 27.1305C204.377 29.1225 203.969 30.8625 203.153 32.3505C202.337 33.8145 201.221 34.9545 199.805 35.7705C198.413 36.5865 196.829 36.9945 195.053 36.9945ZM195.053 34.1145C196.949 34.1145 198.425 33.4785 199.481 32.2065C200.537 30.9105 201.065 29.2425 201.065 27.2025C201.065 25.9545 200.801 24.8145 200.273 23.7825C199.745 22.7265 199.025 21.8865 198.113 21.2625C197.225 20.6145 196.205 20.2905 195.053 20.2905C193.157 20.2905 191.681 20.9145 190.625 22.1625C189.569 23.4105 189.041 25.0665 189.041 27.1305C189.041 28.3785 189.305 29.5425 189.833 30.6225C190.361 31.6785 191.069 32.5305 191.957 33.1785C192.869 33.8025 193.901 34.1145 195.053 34.1145ZM221.609 36.9225L211.925 26.9505V36.5625H208.685V9.9225H211.925V25.1505L220.385 17.4825L222.257 19.5345L215.021 25.9425L223.841 34.7625L221.609 36.9225ZM227.071 36.5625V17.8425H230.311V36.5625H227.071ZM228.691 14.6385C228.067 14.6385 227.527 14.4105 227.071 13.9545C226.639 13.4985 226.423 12.9705 226.423 12.3705C226.423 11.6745 226.627 11.1225 227.035 10.7145C227.443 10.3065 227.995 10.1025 228.691 10.1025C229.315 10.1025 229.843 10.3305 230.275 10.7865C230.731 11.2185 230.959 11.7465 230.959 12.3705C230.959 13.0425 230.755 13.5945 230.347 14.0265C229.939 14.4345 229.387 14.6385 228.691 14.6385ZM236.071 36.5625V17.8425H239.203V20.9745C239.875 19.9665 240.727 19.1265 241.759 18.4545C242.815 17.7585 244.063 17.4105 245.503 17.4105C247.615 17.4105 249.187 18.0465 250.219 19.3185C251.275 20.5905 251.803 22.2705 251.803 24.3585V36.5625H248.563V24.7185C248.563 23.3745 248.239 22.2945 247.591 21.4785C246.967 20.6625 246.091 20.2545 244.963 20.2545C243.859 20.2545 242.815 20.6505 241.831 21.4425C240.847 22.2105 240.007 23.1225 239.311 24.1785V36.5625H236.071ZM264.252 44.9145C263.148 44.9145 262.068 44.7825 261.012 44.5185C259.98 44.2545 259.056 43.8585 258.24 43.3305L259.428 40.5225C260.004 40.9785 260.676 41.3505 261.444 41.6385C262.212 41.9505 263.148 42.1065 264.252 42.1065C265.956 42.1065 267.288 41.6505 268.248 40.7385C269.232 39.8505 269.724 38.4225 269.724 36.4545V34.1505C269.244 34.7265 268.548 35.2785 267.636 35.8065C266.748 36.3105 265.68 36.5625 264.432 36.5625C263.016 36.5625 261.672 36.2025 260.4 35.4825C259.128 34.7385 258.096 33.6585 257.304 32.2425C256.512 30.8265 256.116 29.1225 256.116 27.1305C256.116 25.2585 256.5 23.5905 257.268 22.1265C258.06 20.6625 259.116 19.5105 260.436 18.6705C261.756 17.8305 263.208 17.4105 264.792 17.4105C265.848 17.4105 266.808 17.5905 267.672 17.9505C268.536 18.3105 269.28 18.7545 269.904 19.2825V17.8425H272.856V36.1305C272.856 38.1945 272.496 39.8745 271.776 41.1705C271.056 42.4665 270.048 43.4145 268.752 44.0145C267.48 44.6145 265.98 44.9145 264.252 44.9145ZM265.152 33.6825C266.112 33.6825 266.976 33.4665 267.744 33.0345C268.512 32.6025 269.136 32.0985 269.616 31.5225V21.7305C269.088 21.3465 268.452 20.9985 267.708 20.6865C266.964 20.3745 266.1 20.2185 265.116 20.2185C264.132 20.2185 263.208 20.4825 262.344 21.0105C261.48 21.5385 260.772 22.3065 260.22 23.3145C259.692 24.2985 259.428 25.5105 259.428 26.9505C259.428 28.3185 259.692 29.5065 260.22 30.5145C260.772 31.5225 261.48 32.3025 262.344 32.8545C263.208 33.4065 264.144 33.6825 265.152 33.6825Z" fill="white"/>
<path d="M28.6545 8.26671C28.6545 8.28337 28.6545 8.28337 28.6545 8.30004C28.2378 8.28337 27.8211 8.26671 27.3711 8.26671H14.5377L16.3211 6.50004C17.9545 4.85004 19.7545 3.33337 21.8378 3.33337C23.9378 3.33337 25.7378 4.85004 27.3711 6.50004L28.3045 7.43337C28.5378 7.65004 28.6545 7.95004 28.6545 8.26671Z" fill="white"/>
<path d="M34.7348 21.9486C35.3848 21.9486 35.9015 21.4153 35.9015 20.7486V19.282C35.9015 12.732 33.9015 10.7487 27.3682 10.7487H16.8682H12.6349C6.10156 10.7487 4.10156 12.7487 4.10156 19.282V19.9986C4.10156 20.6653 4.61823 21.182 5.26823 21.182C6.66823 21.182 7.7849 22.3153 7.7849 23.6986C7.7849 25.082 6.66823 26.232 5.26823 26.232C4.61823 26.232 4.10156 26.7486 4.10156 27.4153V28.132C4.10156 34.682 6.10156 36.6653 12.6349 36.6653H16.8515H27.3515C33.8848 36.6653 35.8848 34.6653 35.8848 28.132C35.8848 27.482 35.3682 26.9486 34.7182 26.9486C33.3182 26.9486 32.2015 25.832 32.2015 24.4486C32.2182 23.0653 33.3348 21.9486 34.7348 21.9486ZM18.0348 31.432C18.0348 32.082 17.5015 32.6153 16.8515 32.6153C16.2016 32.6153 15.6682 32.082 15.6682 31.432V26.9653C15.6682 26.3153 16.2016 25.782 16.8515 25.782C17.5015 25.782 18.0348 26.3153 18.0348 26.9653V31.432ZM18.0348 20.4486C18.0348 21.0986 17.5015 21.632 16.8515 21.632C16.2016 21.632 15.6682 21.0986 15.6682 20.4486V15.982C15.6682 15.332 16.2016 14.7987 16.8515 14.7987C17.5015 14.7987 18.0348 15.332 18.0348 15.982V20.4486Z" fill="white"/>
</svg>
